<svg width="179" height="31" viewBox="0 0 179 31" fill="none" xmlns="http://www.w3.org/2000/svg">
<path fill-rule="evenodd" clip-rule="evenodd" d="M8.99841 6.33329C8.99891 6.33329 8.99942 6.33329 8.99992 6.33329C10.2886 6.33329 11.3333 5.28862 11.3333 3.99996C11.3333 2.7113 10.2886 1.66663 8.99992 1.66663C7.94291 1.66663 7.05006 2.36946 6.76321 3.33329H6.16658C5.33816 3.33329 4.66658 4.00487 4.66658 4.83329C4.66658 5.66172 5.33816 6.33329 6.16658 6.33329H8.99841Z" fill="black"/>
<path fill-rule="evenodd" clip-rule="evenodd" d="M12.75 8.41671H15.5H18.25C19.0094 8.41671 19.625 7.8011 19.625 7.04171C19.625 6.28232 19.0094 5.66671 18.25 5.66671V5.66671C17.9566 5.66671 17.7119 5.45529 17.5918 5.18766C17.2335 4.38937 16.4317 3.83337 15.5 3.83337C14.5683 3.83337 13.7665 4.38937 13.4082 5.18766C13.2881 5.45529 13.0434 5.66671 12.75 5.66671V5.66671C11.9906 5.66671 11.375 6.28232 11.375 7.04171C11.375 7.8011 11.9906 8.41671 12.75 8.41671Z" fill="black"/>
<path d="M6 16C6 14.8954 6.89543 14 8 14H16C17.1046 14 18 14.8954 18 16V24C18 25.1046 17.1046 26 16 26H8C6.89543 26 6 25.1046 6 24V16Z" stroke="black" stroke-width="2" stroke-linecap="round" stroke-linejoin="round"/>
<path d="M9 14V12C9 10.8954 9.89543 10 11 10H13C14.1046 10 15 10.8954 15 12V14" stroke="black" stroke-width="2" stroke-linecap="round" stroke-linejoin="round"/>
<path d="M10 18H14" stroke="black" stroke-width="2" stroke-linecap="round" stroke-linejoin="round"/>
<rect x="7" y="26" width="3" height="3" rx="0.5" fill="black"/>
<rect x="14" y="26" width="3" height="3" rx="0.5" fill="black"/>
<path d="M32.7539 6.4375V23.5H29.8359V6.4375H32.7539ZM38.1094 6.4375V8.78125H24.5273V6.4375H38.1094ZM42.0703 13.2344V23.5H39.2461V10.8203H41.9414L42.0703 13.2344ZM45.9492 10.7383L45.9258 13.3633C45.7539 13.332 45.5664 13.3086 45.3633 13.293C45.168 13.2773 44.9727 13.2695 44.7773 13.2695C44.293 13.2695 43.8672 13.3398 43.5 13.4805C43.1328 13.6133 42.8242 13.8086 42.5742 14.0664C42.332 14.3164 42.1445 14.6211 42.0117 14.9805C41.8789 15.3398 41.8008 15.7422 41.7773 16.1875L41.1328 16.2344C41.1328 15.4375 41.2109 14.6992 41.3672 14.0195C41.5234 13.3398 41.7578 12.7422 42.0703 12.2266C42.3906 11.7109 42.7891 11.3086 43.2656 11.0195C43.75 10.7305 44.3086 10.5859 44.9414 10.5859C45.1133 10.5859 45.2969 10.6016 45.4922 10.6328C45.6953 10.6641 45.8477 10.6992 45.9492 10.7383ZM54.4453 20.957V14.9102C54.4453 14.457 54.3633 14.0664 54.1992 13.7383C54.0352 13.4102 53.7852 13.1562 53.4492 12.9766C53.1211 12.7969 52.707 12.707 52.207 12.707C51.7461 12.707 51.3477 12.7852 51.0117 12.9414C50.6758 13.0977 50.4141 13.3086 50.2266 13.5742C50.0391 13.8398 49.9453 14.1406 49.9453 14.4766H47.1328C47.1328 13.9766 47.2539 13.4922 47.4961 13.0234C47.7383 12.5547 48.0898 12.1367 48.5508 11.7695C49.0117 11.4023 49.5625 11.1133 50.2031 10.9023C50.8438 10.6914 51.5625 10.5859 52.3594 10.5859C53.3125 10.5859 54.1562 10.7461 54.8906 11.0664C55.6328 11.3867 56.2148 11.8711 56.6367 12.5195C57.0664 13.1602 57.2812 13.9648 57.2812 14.9336V20.5703C57.2812 21.1484 57.3203 21.668 57.3984 22.1289C57.4844 22.582 57.6055 22.9766 57.7617 23.3125V23.5H54.8672C54.7344 23.1953 54.6289 22.8086 54.5508 22.3398C54.4805 21.8633 54.4453 21.4023 54.4453 20.957ZM54.8555 15.7891L54.8789 17.5352H52.8516C52.3281 17.5352 51.8672 17.5859 51.4688 17.6875C51.0703 17.7812 50.7383 17.9219 50.4727 18.1094C50.207 18.2969 50.0078 18.5234 49.875 18.7891C49.7422 19.0547 49.6758 19.3555 49.6758 19.6914C49.6758 20.0273 49.7539 20.3359 49.9102 20.6172C50.0664 20.8906 50.293 21.1055 50.5898 21.2617C50.8945 21.418 51.2617 21.4961 51.6914 21.4961C52.2695 21.4961 52.7734 21.3789 53.2031 21.1445C53.6406 20.9023 53.9844 20.6094 54.2344 20.2656C54.4844 19.9141 54.6172 19.582 54.6328 19.2695L55.5469 20.5234C55.4531 20.8438 55.293 21.1875 55.0664 21.5547C54.8398 21.9219 54.543 22.2734 54.1758 22.6094C53.8164 22.9375 53.3828 23.207 52.875 23.418C52.375 23.6289 51.7969 23.7344 51.1406 23.7344C50.3125 23.7344 49.5742 23.5703 48.9258 23.2422C48.2773 22.9062 47.7695 22.457 47.4023 21.8945C47.0352 21.3242 46.8516 20.6797 46.8516 19.9609C46.8516 19.2891 46.9766 18.6953 47.2266 18.1797C47.4844 17.6562 47.8594 17.2188 48.3516 16.8672C48.8516 16.5156 49.4609 16.25 50.1797 16.0703C50.8984 15.8828 51.7188 15.7891 52.6406 15.7891H54.8555ZM64.1719 21.2617L67.2773 10.8203H70.207L65.8008 23.5H63.9727L64.1719 21.2617ZM61.793 10.8203L64.957 21.3086L65.1094 23.5H63.2812L58.8516 10.8203H61.793ZM77.3789 23.7344C76.4414 23.7344 75.5938 23.582 74.8359 23.2773C74.0859 22.9648 73.4453 22.5312 72.9141 21.9766C72.3906 21.4219 71.9883 20.7695 71.707 20.0195C71.4258 19.2695 71.2852 18.4609 71.2852 17.5938V17.125C71.2852 16.1328 71.4297 15.2344 71.7188 14.4297C72.0078 13.625 72.4102 12.9375 72.9258 12.3672C73.4414 11.7891 74.0508 11.3477 74.7539 11.043C75.457 10.7383 76.2188 10.5859 77.0391 10.5859C77.9453 10.5859 78.7383 10.7383 79.418 11.043C80.0977 11.3477 80.6602 11.7773 81.1055 12.332C81.5586 12.8789 81.8945 13.5312 82.1133 14.2891C82.3398 15.0469 82.4531 15.8828 82.4531 16.7969V18.0039H72.6562V15.9766H79.6641V15.7539C79.6484 15.2461 79.5469 14.7695 79.3594 14.3242C79.1797 13.8789 78.9023 13.5195 78.5273 13.2461C78.1523 12.9727 77.6523 12.8359 77.0273 12.8359C76.5586 12.8359 76.1406 12.9375 75.7734 13.1406C75.4141 13.3359 75.1133 13.6211 74.8711 13.9961C74.6289 14.3711 74.4414 14.8242 74.3086 15.3555C74.1836 15.8789 74.1211 16.4688 74.1211 17.125V17.5938C74.1211 18.1484 74.1953 18.6641 74.3438 19.1406C74.5 19.6094 74.7266 20.0195 75.0234 20.3711C75.3203 20.7227 75.6797 21 76.1016 21.2031C76.5234 21.3984 77.0039 21.4961 77.543 21.4961C78.2227 21.4961 78.8281 21.3594 79.3594 21.0859C79.8906 20.8125 80.3516 20.4258 80.7422 19.9258L82.2305 21.3672C81.957 21.7656 81.6016 22.1484 81.1641 22.5156C80.7266 22.875 80.1914 23.168 79.5586 23.3945C78.9336 23.6211 78.207 23.7344 77.3789 23.7344ZM87.6797 5.5V23.5H84.8438V5.5H87.6797ZM95.332 19.668L98.7305 6.4375H100.512L100.312 9.84766L96.6797 23.5H94.8281L95.332 19.668ZM92.7891 6.4375L95.543 19.5625L95.7891 23.5H93.8203L89.8711 6.4375H92.7891ZM104.367 19.5273L107.086 6.4375H110.016L106.066 23.5H104.098L104.367 19.5273ZM101.203 6.4375L104.566 19.7031L105.059 23.5H103.207L99.6328 9.84766L99.4453 6.4375H101.203ZM117.129 23.7344C116.191 23.7344 115.344 23.582 114.586 23.2773C113.836 22.9648 113.195 22.5312 112.664 21.9766C112.141 21.4219 111.738 20.7695 111.457 20.0195C111.176 19.2695 111.035 18.4609 111.035 17.5938V17.125C111.035 16.1328 111.18 15.2344 111.469 14.4297C111.758 13.625 112.16 12.9375 112.676 12.3672C113.191 11.7891 113.801 11.3477 114.504 11.043C115.207 10.7383 115.969 10.5859 116.789 10.5859C117.695 10.5859 118.488 10.7383 119.168 11.043C119.848 11.3477 120.41 11.7773 120.855 12.332C121.309 12.8789 121.645 13.5312 121.863 14.2891C122.09 15.0469 122.203 15.8828 122.203 16.7969V18.0039H112.406V15.9766H119.414V15.7539C119.398 15.2461 119.297 14.7695 119.109 14.3242C118.93 13.8789 118.652 13.5195 118.277 13.2461C117.902 12.9727 117.402 12.8359 116.777 12.8359C116.309 12.8359 115.891 12.9375 115.523 13.1406C115.164 13.3359 114.863 13.6211 114.621 13.9961C114.379 14.3711 114.191 14.8242 114.059 15.3555C113.934 15.8789 113.871 16.4688 113.871 17.125V17.5938C113.871 18.1484 113.945 18.6641 114.094 19.1406C114.25 19.6094 114.477 20.0195 114.773 20.3711C115.07 20.7227 115.43 21 115.852 21.2031C116.273 21.3984 116.754 21.4961 117.293 21.4961C117.973 21.4961 118.578 21.3594 119.109 21.0859C119.641 20.8125 120.102 20.4258 120.492 19.9258L121.98 21.3672C121.707 21.7656 121.352 22.1484 120.914 22.5156C120.477 22.875 119.941 23.168 119.309 23.3945C118.684 23.6211 117.957 23.7344 117.129 23.7344ZM131.555 20.957V14.9102C131.555 14.457 131.473 14.0664 131.309 13.7383C131.145 13.4102 130.895 13.1562 130.559 12.9766C130.23 12.7969 129.816 12.707 129.316 12.707C128.855 12.707 128.457 12.7852 128.121 12.9414C127.785 13.0977 127.523 13.3086 127.336 13.5742C127.148 13.8398 127.055 14.1406 127.055 14.4766H124.242C124.242 13.9766 124.363 13.4922 124.605 13.0234C124.848 12.5547 125.199 12.1367 125.66 11.7695C126.121 11.4023 126.672 11.1133 127.312 10.9023C127.953 10.6914 128.672 10.5859 129.469 10.5859C130.422 10.5859 131.266 10.7461 132 11.0664C132.742 11.3867 133.324 11.8711 133.746 12.5195C134.176 13.1602 134.391 13.9648 134.391 14.9336V20.5703C134.391 21.1484 134.43 21.668 134.508 22.1289C134.594 22.582 134.715 22.9766 134.871 23.3125V23.5H131.977C131.844 23.1953 131.738 22.8086 131.66 22.3398C131.59 21.8633 131.555 21.4023 131.555 20.957ZM131.965 15.7891L131.988 17.5352H129.961C129.438 17.5352 128.977 17.5859 128.578 17.6875C128.18 17.7812 127.848 17.9219 127.582 18.1094C127.316 18.2969 127.117 18.5234 126.984 18.7891C126.852 19.0547 126.785 19.3555 126.785 19.6914C126.785 20.0273 126.863 20.3359 127.02 20.6172C127.176 20.8906 127.402 21.1055 127.699 21.2617C128.004 21.418 128.371 21.4961 128.801 21.4961C129.379 21.4961 129.883 21.3789 130.312 21.1445C130.75 20.9023 131.094 20.6094 131.344 20.2656C131.594 19.9141 131.727 19.582 131.742 19.2695L132.656 20.5234C132.562 20.8438 132.402 21.1875 132.176 21.5547C131.949 21.9219 131.652 22.2734 131.285 22.6094C130.926 22.9375 130.492 23.207 129.984 23.418C129.484 23.6289 128.906 23.7344 128.25 23.7344C127.422 23.7344 126.684 23.5703 126.035 23.2422C125.387 22.9062 124.879 22.457 124.512 21.8945C124.145 21.3242 123.961 20.6797 123.961 19.9609C123.961 19.2891 124.086 18.6953 124.336 18.1797C124.594 17.6562 124.969 17.2188 125.461 16.8672C125.961 16.5156 126.57 16.25 127.289 16.0703C128.008 15.8828 128.828 15.7891 129.75 15.7891H131.965ZM143.156 10.8203V12.8828H136.008V10.8203H143.156ZM138.07 7.71484H140.895V19.9961C140.895 20.3867 140.949 20.6875 141.059 20.8984C141.176 21.1016 141.336 21.2383 141.539 21.3086C141.742 21.3789 141.98 21.4141 142.254 21.4141C142.449 21.4141 142.637 21.4023 142.816 21.3789C142.996 21.3555 143.141 21.332 143.25 21.3086L143.262 23.4648C143.027 23.5352 142.754 23.5977 142.441 23.6523C142.137 23.707 141.785 23.7344 141.387 23.7344C140.738 23.7344 140.164 23.6211 139.664 23.3945C139.164 23.1602 138.773 22.7812 138.492 22.2578C138.211 21.7344 138.07 21.0391 138.07 20.1719V7.71484ZM148.125 5.5V23.5H145.312V5.5H148.125ZM147.633 16.6914L146.719 16.6797C146.727 15.8047 146.848 14.9961 147.082 14.2539C147.324 13.5117 147.66 12.8672 148.09 12.3203C148.527 11.7656 149.051 11.3398 149.66 11.043C150.27 10.7383 150.945 10.5859 151.688 10.5859C152.312 10.5859 152.875 10.6719 153.375 10.8438C153.883 11.0156 154.32 11.293 154.688 11.6758C155.055 12.0508 155.332 12.543 155.52 13.1523C155.715 13.7539 155.812 14.4883 155.812 15.3555V23.5H152.977V15.332C152.977 14.7227 152.887 14.2383 152.707 13.8789C152.535 13.5195 152.281 13.2617 151.945 13.1055C151.609 12.9414 151.199 12.8594 150.715 12.8594C150.207 12.8594 149.758 12.9609 149.367 13.1641C148.984 13.3672 148.664 13.6445 148.406 13.9961C148.148 14.3477 147.953 14.7539 147.82 15.2148C147.695 15.6758 147.633 16.168 147.633 16.6914ZM164.262 23.7344C163.324 23.7344 162.477 23.582 161.719 23.2773C160.969 22.9648 160.328 22.5312 159.797 21.9766C159.273 21.4219 158.871 20.7695 158.59 20.0195C158.309 19.2695 158.168 18.4609 158.168 17.5938V17.125C158.168 16.1328 158.312 15.2344 158.602 14.4297C158.891 13.625 159.293 12.9375 159.809 12.3672C160.324 11.7891 160.934 11.3477 161.637 11.043C162.34 10.7383 163.102 10.5859 163.922 10.5859C164.828 10.5859 165.621 10.7383 166.301 11.043C166.98 11.3477 167.543 11.7773 167.988 12.332C168.441 12.8789 168.777 13.5312 168.996 14.2891C169.223 15.0469 169.336 15.8828 169.336 16.7969V18.0039H159.539V15.9766H166.547V15.7539C166.531 15.2461 166.43 14.7695 166.242 14.3242C166.062 13.8789 165.785 13.5195 165.41 13.2461C165.035 12.9727 164.535 12.8359 163.91 12.8359C163.441 12.8359 163.023 12.9375 162.656 13.1406C162.297 13.3359 161.996 13.6211 161.754 13.9961C161.512 14.3711 161.324 14.8242 161.191 15.3555C161.066 15.8789 161.004 16.4688 161.004 17.125V17.5938C161.004 18.1484 161.078 18.6641 161.227 19.1406C161.383 19.6094 161.609 20.0195 161.906 20.3711C162.203 20.7227 162.562 21 162.984 21.2031C163.406 21.3984 163.887 21.4961 164.426 21.4961C165.105 21.4961 165.711 21.3594 166.242 21.0859C166.773 20.8125 167.234 20.4258 167.625 19.9258L169.113 21.3672C168.84 21.7656 168.484 22.1484 168.047 22.5156C167.609 22.875 167.074 23.168 166.441 23.3945C165.816 23.6211 165.09 23.7344 164.262 23.7344ZM174.375 13.2344V23.5H171.551V10.8203H174.246L174.375 13.2344ZM178.254 10.7383L178.23 13.3633C178.059 13.332 177.871 13.3086 177.668 13.293C177.473 13.2773 177.277 13.2695 177.082 13.2695C176.598 13.2695 176.172 13.3398 175.805 13.4805C175.438 13.6133 175.129 13.8086 174.879 14.0664C174.637 14.3164 174.449 14.6211 174.316 14.9805C174.184 15.3398 174.105 15.7422 174.082 16.1875L173.438 16.2344C173.438 15.4375 173.516 14.6992 173.672 14.0195C173.828 13.3398 174.062 12.7422 174.375 12.2266C174.695 11.7109 175.094 11.3086 175.57 11.0195C176.055 10.7305 176.613 10.5859 177.246 10.5859C177.418 10.5859 177.602 10.6016 177.797 10.6328C178 10.6641 178.152 10.6992 178.254 10.7383Z" fill="black"/>
</svg>
