<svg width="899" height="613" viewBox="0 0 899 613" fill="none" xmlns="http://www.w3.org/2000/svg">
<circle cx="604.432" cy="294.568" r="98.1894" fill="#FFDD1C"/>
<path d="M604.432 122.737V73.642" stroke="#FFDD1C" stroke-width="20" stroke-linecap="round"/>
<path d="M604.432 515.494V466.399" stroke="#FFDD1C" stroke-width="20" stroke-linecap="round"/>
<path d="M725.936 173.058L760.651 138.343" stroke="#FFDD1C" stroke-width="20" stroke-linecap="round"/>
<path d="M448.215 450.797L482.93 416.082" stroke="#FFDD1C" stroke-width="20" stroke-linecap="round"/>
<path d="M776.263 294.568L825.358 294.568" stroke="#FFDD1C" stroke-width="20" stroke-linecap="round"/>
<path d="M383.506 294.568L432.601 294.568" stroke="#FFDD1C" stroke-width="20" stroke-linecap="round"/>
<path d="M725.936 416.078L760.651 450.794" stroke="#FFDD1C" stroke-width="20" stroke-linecap="round"/>
<path d="M448.215 138.339L482.93 173.054" stroke="#FFDD1C" stroke-width="20" stroke-linecap="round"/>
<path fill-rule="evenodd" clip-rule="evenodd" d="M197.859 552.459H395.718H593.577C648.214 552.459 692.507 508.167 692.507 453.53C692.507 398.892 648.214 354.6 593.577 354.6H562.207C559.876 354.6 558.711 354.6 557.892 353.951C557.074 353.302 556.8 352.136 556.254 349.804C539.177 276.946 473.783 222.694 395.718 222.694C317.653 222.694 252.259 276.946 235.182 349.804C234.636 352.136 234.363 353.302 233.544 353.951C232.725 354.6 231.56 354.6 229.229 354.6H197.859C143.222 354.6 98.9297 398.892 98.9297 453.53C98.9297 508.167 143.222 552.459 197.859 552.459Z" fill="white"/>
</svg>
